<svg width="800" height="1131" viewBox="0 0 800 1131" xmlns="http://www.w3.org/2000/svg">
  <rect width="100%" height="100%" fill="white"/>
  <!-- Header -->
  <rect x="50" y="80" width="700" height="60" fill="#A8D4F0"/>
  <text x="400" y="120" text-anchor="middle" font-family="sans-serif" font-size="32" fill="#1a365d" font-weight="bold">오늘의 수업</text>
  
  <!-- Headers -->
  <rect x="60" y="150" width="80" height="50" fill="#E0E0E0"/>
  <rect x="150" y="150" width="310" height="50" fill="#90CAF9"/>
  <rect x="470" y="150" width="270" height="50" fill="#A5D6A7"/>
  <text x="100" y="180" text-anchor="middle" font-family="sans-serif">순서</text>
  <text x="305" y="180" text-anchor="middle" font-family="sans-serif">할 일</text>
  <text x="605" y="180" text-anchor="middle" font-family="sans-serif">끝!</text>

  <!-- Row 1 -->
  <rect x="60" y="210" width="80" height="210" fill="white" stroke="#CCCCCC"/>
  <text x="100" y="320" text-anchor="middle" font-size="36" font-family="sans-serif">1</text>
  <rect x="150" y="210" width="310" height="210" fill="#BBDEFB" rx="8"/>
  <rect x="470" y="210" width="270" height="210" fill="#C8E6C9" rx="8"/>

  <!-- Row 2 -->
  <rect x="60" y="430" width="80" height="210" fill="white" stroke="#CCCCCC"/>
  <text x="100" y="540" text-anchor="middle" font-size="36" font-family="sans-serif">2</text>
  <rect x="150" y="430" width="310" height="210" fill="#BBDEFB" rx="8"/>
  <rect x="470" y="430" width="270" height="210" fill="#C8E6C9" rx="8"/>
  
  <!-- Row 3 -->
  <rect x="60" y="650" width="80" height="210" fill="white" stroke="#CCCCCC"/>
  <text x="100" y="760" text-anchor="middle" font-size="36" font-family="sans-serif">3</text>
  <rect x="150" y="650" width="310" height="210" fill="#BBDEFB" rx="8"/>
  <rect x="470" y="650" width="270" height="210" fill="#C8E6C9" rx="8"/>
</svg>
