<svg width="800" height="1131" viewBox="0 0 800 1131" xmlns="http://www.w3.org/2000/svg">
  <rect width="100%" height="100%" fill="white"/>
  <!-- Header -->
  <rect x="0" y="0" width="800" height="100" fill="#90CAF9"/>
  <text x="400" y="65" font-family="sans-serif" font-size="40" text-anchor="middle" fill="white" font-weight="bold">제목</text>
  <text x="400" y="140" font-family="sans-serif" font-size="24" text-anchor="middle" fill="black">낱말 짝꿍을 비교해요.</text>
  
  <!-- Row 1 -->
  <g transform="translate(0, 0)">
    <!-- Col 1 -->
    <text x="160" y="175" font-family="sans-serif" font-size="24" text-anchor="middle">단어</text>
    <rect x="195" y="220" width="150" height="110" fill="#F0F0F0" rx="4"/>
    <line x1="180" y1="340" x2="360" y2="340" stroke="black" stroke-width="2"/>
    <!-- Col 2 -->
    <text x="380" y="175" font-family="sans-serif" font-size="24" text-anchor="middle">단어</text>
    <rect x="415" y="220" width="150" height="110" fill="#F0F0F0" rx="4"/>
    <line x1="400" y1="340" x2="580" y2="340" stroke="black" stroke-width="2"/>
    <!-- Col 3 -->
    <text x="600" y="175" font-family="sans-serif" font-size="24" text-anchor="middle">단어</text>
    <rect x="635" y="220" width="150" height="110" fill="#F0F0F0" rx="4"/>
    <line x1="620" y1="340" x2="800" y2="340" stroke="black" stroke-width="2"/>
  </g>
  
  <!-- Row 2 -->
  <g transform="translate(0, 220)">
      <text x="160" y="175" font-family="sans-serif" font-size="24" text-anchor="middle">단어</text>
      <rect x="195" y="220" width="150" height="110" fill="#F0F0F0" rx="4"/>
      <line x1="180" y1="340" x2="360" y2="340" stroke="black" stroke-width="2"/>
      
      <text x="380" y="175" font-family="sans-serif" font-size="24" text-anchor="middle">단어</text>
      <rect x="415" y="220" width="150" height="110" fill="#F0F0F0" rx="4"/>
      <line x1="400" y1="340" x2="580" y2="340" stroke="black" stroke-width="2"/>
      
      <text x="600" y="175" font-family="sans-serif" font-size="24" text-anchor="middle">단어</text>
      <rect x="635" y="220" width="150" height="110" fill="#F0F0F0" rx="4"/>
      <line x1="620" y1="340" x2="800" y2="340" stroke="black" stroke-width="2"/>
  </g>
</svg>
